<svg width="20" height="16" viewBox="0 0 20 16" fill="none" xmlns="http://www.w3.org/2000/svg"><path d="M11.5 0.400391C11.7255 0.400391 11.9421 0.48993 12.1016 0.649414L18.8516 7.39941C18.9304 7.47829 18.9934 7.57175 19.0361 7.6748C19.0788 7.77786 19.1005 7.88845 19.1006 8C19.1006 8.1117 19.0789 8.22298 19.0361 8.32617C18.9934 8.42921 18.9305 8.5227 18.8516 8.60156L12.1016 15.3516C11.9421 15.511 11.7255 15.6006 11.5 15.6006C11.2745 15.6006 11.0579 15.511 10.8984 15.3516C10.7391 15.1921 10.6494 14.9754 10.6494 14.75C10.6495 14.5247 10.7392 14.3088 10.8984 14.1494L16.1982 8.85059H1.75C1.5247 8.85059 1.30879 8.76079 1.14941 8.60156C0.990008 8.44216 0.900391 8.22543 0.900391 8C0.900501 7.77472 0.990106 7.55872 1.14941 7.39941C1.3088 7.24014 1.52466 7.15039 1.75 7.15039H16.1982L10.8984 1.85156C10.7391 1.6921 10.6494 1.47545 10.6494 1.25C10.6495 1.02474 10.7392 0.808773 10.8984 0.649414C11.0579 0.48993 11.2745 0.400391 11.5 0.400391Z" fill="#6b6565" stroke="#6b6565" stroke-width="0.2"/></svg>